<?xml version="1.0" standalone="no"?>
<!DOCTYPE svg PUBLIC "-//W3C//DTD SVG 20010904//EN"
 "http://www.w3.org/TR/2001/REC-SVG-20010904/DTD/svg10.dtd">
<svg version="1.0" xmlns="http://www.w3.org/2000/svg"
 width="512.000000pt" height="512.000000pt" viewBox="0 0 512.000000 512.000000"
 preserveAspectRatio="xMidYMid meet">
<metadata>
Created by potrace 1.14, written by Peter Selinger 2001-2017
</metadata>
<g transform="translate(0.000000,512.000000) scale(0.100000,-0.100000)"
fill="#000000" stroke="none">
<path d="M1485 2560 l-431 -1290 234 2 234 3 261 789 262 789 43 -184 c53
-225 175 -736 247 -1034 29 -121 56 -236 60 -255 12 -59 14 -60 175 -60 l147
0 394 759 c217 418 395 758 397 757 1 -2 15 -252 32 -557 16 -305 35 -656 41
-781 l12 -228 235 0 234 0 -6 83 c-4 45 -18 293 -31 552 -22 406 -52 961 -70
1300 -3 55 -12 214 -20 353 -8 140 -15 262 -15 273 0 18 -10 19 -189 19 l-189
0 -292 -562 c-161 -310 -354 -680 -428 -822 l-135 -259 -197 819 -196 819
-190 3 -189 2 -430 -1290z"/>
</g>
</svg>
